<?xml version="1.0" encoding="utf-8"?>
<!-- Generator: Adobe Illustrator 19.0.0, SVG Export Plug-In . SVG Version: 6.00 Build 0)  -->
<svg version="1.1" id="logo" xmlns="http://www.w3.org/2000/svg" xmlns:xlink="http://www.w3.org/1999/xlink" x="0px" y="0px"
	 viewBox="-471 373.4 56 55.6" style="enable-background:new -471 373.4 56 55.6;" xml:space="preserve">
<style type="text/css">
	.st0{fill:#E6E6E6;}
	.st1{fill:url(#XMLID_2_);}
	.st2{fill:url(#XMLID_3_);}
</style>
<polygon id="XMLID_14_" class="st0" points="-471,429 -471,409 -419.3,409 "/>
<linearGradient id="XMLID_2_" gradientUnits="userSpaceOnUse" x1="-470.036" y1="374.1303" x2="-418.1644" y2="404.0784" gradientTransform="matrix(1 0 0 -1 0 804.8)">
	<stop  offset="0.2843" style="stop-color:#74B42B"/>
	<stop  offset="1" style="stop-color:#F7B12A"/>
</linearGradient>
<path id="XMLID_12_" class="st1" d="M-471,429l45.7-35.2c1.2-0.9,2.9-0.5,3.6,0.8l6.5,12.9c0.7,1.3,0,2.9-1.4,3.3L-471,429z"/>
<linearGradient id="XMLID_3_" gradientUnits="userSpaceOnUse" x1="-447.6996" y1="431.4" x2="-447.6996" y2="375.8" gradientTransform="matrix(1 0 0 -1 0 804.8)">
	<stop  offset="0" style="stop-color:#DCDDDD"/>
	<stop  offset="1" style="stop-color:#B5B5B6"/>
</linearGradient>
<path id="XMLID_8_" class="st2" d="M-454.5,396.1L-471,429v-22l15.6-32.1c1-2,3.8-2,4.8,0l26.1,52.8c0.3,0.6-0.1,1.3-0.8,1.3h-3.5
	c-3.8,0-7.3-2.2-9-5.6l-13.7-27.3C-452.1,394.8-453.9,394.8-454.5,396.1z"/>
</svg>
